<svg width="24" height="24" viewBox="0 0 24 24" fill="none" xmlns="http://www.w3.org/2000/svg">
<circle cx="12" cy="12" r="11.5" stroke="#002B53"/>
<g clip-path="url(#clip0_249_7751)">
<path d="M6.75 18.75C6.75 17.3103 7.30312 15.9295 8.28769 14.9114C9.27226 13.8934 10.6076 13.3214 12 13.3214C13.3924 13.3214 14.7277 13.8934 15.7123 14.9114C16.6969 15.9295 17.25 17.3103 17.25 18.75H15.9375C15.9375 17.6702 15.5227 16.6346 14.7842 15.8711C14.0458 15.1075 13.0443 14.6786 12 14.6786C10.9557 14.6786 9.95419 15.1075 9.21577 15.8711C8.47734 16.6346 8.0625 17.6702 8.0625 18.75H6.75ZM12 12.6429C9.82453 12.6429 8.0625 10.8209 8.0625 8.57143C8.0625 6.32196 9.82453 4.5 12 4.5C14.1755 4.5 15.9375 6.32196 15.9375 8.57143C15.9375 10.8209 14.1755 12.6429 12 12.6429ZM12 11.2857C13.4503 11.2857 14.625 10.0711 14.625 8.57143C14.625 7.07179 13.4503 5.85714 12 5.85714C10.5497 5.85714 9.375 7.07179 9.375 8.57143C9.375 10.0711 10.5497 11.2857 12 11.2857Z" fill="#002B53"/>
</g>
<defs>
<clipPath id="clip0_249_7751">
<rect width="18" height="18" fill="white" transform="translate(3 3)"/>
</clipPath>
</defs>
</svg>
